# xmcd CD database file
#
# Track frame offsets:
#	150
#	8937
#	44355
#	78163
#	115197
#	193768
#	223029
#	254639
#	285840
#
# Disc length: 4312 seconds
#
# Revision: 0
# Processed by: cddbd v1.5.1PL0 Copyright (c) Steve Scherf et al.
# Submitted via: CDex 1.51
#
DISCID=7910d609
DTITLE=Bozo Allegro - Relentlessly Cheerful
DYEAR=2000
DGENRE=Jazz
TTITLE0=At the End of My Day
TTITLE1=Honeypunk
TTITLE2=Breathless Mornings
TTITLE3=Vertical Smiles
TTITLE4=Suite Candlin
TTITLE5=Coreatown
TTITLE6=Rise and Fall of the glass Reich
TTITLE7=Loyolita
TTITLE8=Sonny Smiles
EXTD=YEAR: 2000
EXTT0=
EXTT1=
EXTT2=
EXTT3=
EXTT4=
EXTT5=
EXTT6=
EXTT7=
EXTT8=
PLAYORDER=
